<svg version="1.1" id="レイヤー_1" xmlns="http://www.w3.org/2000/svg" xmlns:xlink="http://www.w3.org/1999/xlink" x="0px"
y="0px" viewBox="0 0 512 512" style="enable-background:new 0 0 512 512;" xml:space="preserve">
<style type="text/css">
	.st0{fill:#E9A23B;}
</style>
<g>
	<g>
		<circle class="st0" cx="256.12" cy="99.01" r="56.77"/>
	</g>
	<path class="st0" d="M290.3,469.76h-68.48c-9.04,0-15.84-8.25-14.12-17.12l47.8-246.03l0,0l48.9,245.97
		C306.18,461.47,299.37,469.76,290.3,469.76z"/>
	<path class="st0" d="M71.12,434.57l-53.67-42.53c-7.09-5.62-7.29-16.3-0.43-22.19L207.3,206.71l0,0L92.84,429.86
		C88.71,437.93,78.22,440.2,71.12,434.57z"/>
	<path class="st0" d="M440.88,434.24l53.67-42.53c7.09-5.62,7.29-16.3,0.43-22.19L304.7,206.39l0,0l114.45,223.14
		C423.29,437.6,433.78,439.87,440.88,434.24z"/>
</g>
</svg>
